<?xml version="1.0" encoding="utf-8"?>
<!-- Generator: Adobe Illustrator 25.2.3, SVG Export Plug-In . SVG Version: 6.00 Build 0)  -->
<svg version="1.1" id="Calque_1" xmlns="http://www.w3.org/2000/svg" xmlns:xlink="http://www.w3.org/1999/xlink" x="0px" y="0px"
	 viewBox="0 0 198.2 232.8" style="enable-background:new 0 0 198.2 232.8;" xml:space="preserve">
<style type="text/css">
	.st0{fill:#1D1D1B;}
	.st1{fill:#040404;}
	.st2{fill:#D8D8D8;}
	.st3{fill:#C5C5C5;}
	.st4{fill:#604E44;}
	.st5{fill:#614F44;}
	.st6{fill:#020202;}
	.st7{fill:#090909;}
	.st8{fill:#010101;}
	.st9{fill:#0A0A0A;}
	.st10{fill:#1E1E1C;}
	.st11{fill:#020201;}
	.st12{fill:#1D1D1D;}
	.st13{fill:#D4D4D4;}
	.st14{fill:#D7D7D7;}
</style>
<g>
	<path class="st0" d="M24.3,99c3.2-36,17.6-65,51.6-81.4c5.7-2.7,11.8-4.3,18.2-4.5c3.3,0.6,6.6,0.7,9.9,0
		c13.3,0.4,24.9,5.6,35,13.7C162,45.3,172.9,70,174.9,99c-0.5,1.1-0.3,2.3-0.3,3.4c0,36.8,0,73.6,0,110.4c0,1-0.1,2,0.2,3
		c-1.2,3.4-3.7,4.3-7,4.3c-16.4,0-31.1-15.4-31.4-33.2c-0.1-8.3,0-16.7,0-25c0-4.3-1.2-7.9-5.4-9.9c-5.1-2.4-7.9-1.2-9.9,4
		c-2.3,5.9-5.3,11.5-10.1,15.9c-7.2,6.7-15.5,6.7-22.7,0c-5-4.7-8.4-10.4-10.2-16.9c-1.2-4.4-3.8-4.4-7-3.8c-5.2,0.9-8,4.3-8.2,10.3
		c-0.2,8.3,0,16.7-0.1,25c-0.2,17.9-14.4,33.2-31,33.7c-3.5,0.1-6.3-0.7-7.5-4.3c0.5-6.3,0.2-12.6,0.2-19c0-30.8,0-61.6,0-92.4
		C24.6,102.6,24.9,100.8,24.3,99z"/>
	<path d="M24.3,99c1.2,1.2,0.8,2.8,0.8,4.3c0,36.2,0,72.5,0,108.7c0,1.3,0.3,2.7-0.7,3.8c-0.1-1-0.4-2-0.4-2.9
		c0-36.6,0-73.2,0-109.9C24.1,101.6,24.2,100.3,24.3,99z"/>
	<path d="M174.7,215.8c-1.2-1.5-0.7-3.2-0.7-4.8c0-35.7,0-71.5,0-107.2c0-1.6-0.5-3.4,0.8-4.8c0.1,28.6,0.2,57.3,0.2,85.9
		C175.1,195.2,175.6,205.5,174.7,215.8z"/>
	<path class="st1" d="M104,13.1c-3.3,1.4-6.6,1.4-9.9,0C97.4,12.8,100.7,12.7,104,13.1z"/>
	<path class="st2" d="M100.1,105.7c19,0,37.9,0,56.9,0c5.8,0,5.8,0.1,4.8,5.9c-2.5,14.1-16.1,25.5-31.8,26.3
		c-3.8,0.2-7.7,0.1-11.5,0.2c-5.6,0.1-7.8,1.9-8.3,7.7c-0.5,5.4-2,10.4-5.3,14.8c-3.5,4.7-7.3,4.7-10.9-0.1c-3-3.9-4.7-8.4-5.1-13.3
		c-0.6-7.5-2.3-9.2-10-9.1c-8.4,0.1-16.6-0.2-24.3-4.1c-9.7-5-15.6-12.6-17.6-23.3c-0.8-4,0.5-5,4.5-5
		C61.2,105.8,80.6,105.7,100.1,105.7z"/>
	<path class="st3" d="M81,30c6.2-4.9,13.7-4.3,20.9-4.2c5.7,0.1,11.6,0.2,16.4,4.2c0.8,11.6,0.3,23.1,0.3,34.7
		c0,11.1,0.5,22.1-0.3,33.2c-1.1,1.9-2.9,1.1-4.4,1.1c-8.7,0.1-17.5-0.3-26.2,0.2c-5,0.3-7.3-1.1-6.5-6.3
		c-0.8-12.7-0.3-25.4-0.3-38.1C80.6,46.5,80.2,38.3,81,30z"/>
	<path class="st3" d="M74.8,98.9C63.2,98.9,51.6,99,40,99.1c-2.1,0-3.1-0.5-2.8-2.8C40.1,70.7,49,48.5,71.5,33.7
		c0.6-0.4,1.1-0.7,1.7-1c0.3-0.1,0.6-0.2,1.2-0.4c0.2,1.2,0.4,2.4,0.6,3.6c0.9,1.6,0.4,3.3,0.5,4.9c0,17.8,0,35.5,0,53.3
		C75.5,95.7,76.2,97.5,74.8,98.9z"/>
	<path class="st3" d="M124.1,36c0.2-1.1,0.3-2.3,0.5-3.9c8.3,4.1,14.7,10.2,20.1,17.3c10.4,13.6,15.4,29.2,17.1,46
		c0.2,1.7,0.8,3.7-2.3,3.7c-11.8-0.2-23.6-0.2-35.4-0.3c-0.8-0.8-0.6-1.9-0.6-2.8c0-19.2,0-38.4,0-57.6
		C123.6,37.5,123.6,36.7,124.1,36z"/>
	<path class="st4" d="M162.1,171.8c0,10-0.2,20,0.1,30c0.1,4.5-1.7,4.3-4.6,2.4c-6.1-3.8-8.3-9.7-8.5-16.5c-0.2-7.8-0.2-15.7,0-23.5
		c0.1-4.9-0.5-9.6-3.2-13.8c-1.2-1.8-1-3,0.9-4c4.5-2.4,8.8-5.2,12.9-8.4c2.6-2,2.2,1,2.2,2.3C162.1,150.8,162.1,161.3,162.1,171.8
		C162.1,171.8,162.1,171.8,162.1,171.8z"/>
	<path class="st5" d="M37.1,170.9c0-10.2,0-20.3,0-30.5c0-1-0.1-2.3,0.5-2.8c1.2-1,2,0.5,2.9,1.1c3.7,2.4,7.4,5.1,11.2,7.3
		c2.2,1.3,2.9,2.3,1.2,4.6c-2.3,3.2-2.8,6.9-2.9,10.9c-0.3,10.6,1.1,21.3-0.9,31.8c-1,5-3.9,8.7-8.3,11.2c-2.7,1.5-3.8,1.1-3.8-2.2
		C37.2,191.9,37.1,181.4,37.1,170.9z"/>
	<path class="st6" d="M118.2,97.9c0-22.6,0-45.2,0-67.9c1.2,1,0.8,2.4,0.8,3.7c0,20.1,0,40.3,0,60.4
		C119.1,95.5,119.4,96.9,118.2,97.9z"/>
	<path class="st7" d="M124.1,36c0,20.9,0.1,41.9,0.1,62.8c-1.6,0.6-1.1-0.7-1.1-1.3c0-19.6,0-39.2,0-58.8
		C123.1,37.6,123.1,36.7,124.1,36z"/>
	<path class="st8" d="M81,30c0,21,0,41.9,0,62.9c-1.2-1-0.9-2.4-0.9-3.7c0-18.5,0-36.9,0-55.4C80.1,32.5,79.8,31.1,81,30z"/>
	<path class="st9" d="M74.8,98.9c0.1-21,0.2-41.9,0.3-62.9c1.4,1.1,1,2.7,1,4.2c0,18.1,0,36.2,0,54.3C76.1,96,76.7,97.8,74.8,98.9z"
		/>
	<path class="st10" d="M115.1,126.8c-3.8-1.2-5.2-3.8-4.4-7.6c0.9-3.7,3.6-4.9,7.1-4.9c6.6,0,13.3,0,19.9,0c3.8,0,6.6,1.7,7.1,5.6
		c0.4,3.4-1,6.2-4.8,6.9C131.7,126.1,123.4,126.2,115.1,126.8z"/>
	<path class="st10" d="M59.1,126.8c-3.9-1-5.5-3.7-4.7-7.4c0.7-3.6,3.4-5.1,7-5.1c6.8,0,13.6-0.1,20.4,0c3.5,0.1,6.2,1.6,6.7,5.3
		c0.5,3.5-0.8,6.1-4.5,7.1C75.7,126.2,67.4,126.1,59.1,126.8z"/>
	<path class="st8" d="M59.1,126.8c8.3-1.5,16.6-1.4,24.9,0C75.7,127.3,67.4,127.2,59.1,126.8z"/>
	<path class="st11" d="M115.1,126.8c8.3-1.4,16.6-1.4,24.9,0C131.7,127.3,123.4,127.2,115.1,126.8z"/>
	<path class="st12" d="M111.3,47.3c0,6.3-5.5,11.8-11.8,11.8c-6.2,0-11.7-5.6-11.7-11.9c0-6.2,5.7-11.9,11.8-11.9
		C105.7,35.3,111.4,41.1,111.3,47.3z"/>
	<path class="st12" d="M87.9,81.9c0-6.3,5.5-11.9,11.6-12c6.1,0,11.8,5.6,11.8,11.8c0,6.3-5.5,11.9-11.6,12
		C93.6,93.8,87.9,88.1,87.9,81.9z"/>
	<path class="st13" d="M105,47.3c-0.2,3.6-2.2,5.5-5.8,5.4c-3.3-0.1-5.1-2.1-5.1-5.5c0-3.4,1.9-5.2,5.2-5.3
		C103.1,41.8,104.9,43.7,105,47.3z"/>
	<path class="st14" d="M105,82c-0.2,3.1-1.8,5.1-5.3,5.1c-3.6,0-5.6-1.6-5.6-5.3c0-3.4,2-5.3,5.2-5.4C102.8,76.3,104.9,78.2,105,82z
		"/>
</g>
</svg>
